<svg width="25.000000" height="25.000000" viewBox="0 0 25 25" fill="none" xmlns="http://www.w3.org/2000/svg" xmlns:xlink="http://www.w3.org/1999/xlink">
	<desc>
			Created with Pixso.
	</desc>
	<defs>
		<clipPath id="clip78_354">
			<rect id="free-icon-apple-black-logo-15476 1" rx="0.000000" width="12.964301" height="12.964301" transform="translate(6.208722 5.046124)" fill="white" fill-opacity="0"/>
		</clipPath>
	</defs>
	<circle id="Ellipse 14" r="12.500000" transform="matrix(1 -2.77556e-17 2.77556e-17 1 12.5 12.5)" fill="#FFFFFF" fill-opacity="1.000000"/>
	<rect id="free-icon-apple-black-logo-15476 1" rx="0.000000" width="12.964301" height="12.964301" transform="translate(6.208722 5.046124)" fill="#FFFFFF" fill-opacity="0"/>
	<g clip-path="url(#clip78_354)">
		<path id="Vector" d="M16.25 12.31C15.89 10.51 17.59 9.46 17.59 9.46C17.59 9.46 16.93 8.49 15.81 8.25C14.69 8 14.14 8.31 13.58 8.54C13.02 8.77 12.74 8.77 12.74 8.77C11.93 8.77 11.35 7.92 9.81 8.31C8.75 8.58 7.64 9.8 7.44 11.26C7.24 12.71 7.67 14.57 8.51 16.02C9.34 17.46 10.2 18 10.8 18.02C11.41 18.03 12.01 17.58 12.74 17.47C13.47 17.37 13.92 17.74 14.63 17.94C15.35 18.14 15.6 17.95 16.42 17.26C17.24 16.56 17.98 14.56 17.98 14.56C17.98 14.56 16.6 14.11 16.25 12.31Z" fill="#000000" fill-opacity="1.000000" fill-rule="nonzero"/>
		<path id="Vector" d="M14.66 7.08C15.46 6.28 15.19 5.03 15.19 5.03C15.19 5.03 14.08 5.22 13.33 6C12.59 6.77 12.71 8 12.71 8C12.71 8 13.87 7.89 14.66 7.08Z" fill="#000000" fill-opacity="1.000000" fill-rule="nonzero"/>
	</g>
</svg>
