<svg width="17.999756" height="18.000000" viewBox="0 0 17.9998 18" fill="none" xmlns="http://www.w3.org/2000/svg" xmlns:xlink="http://www.w3.org/1999/xlink">
	<desc>
			Created with Pixso.
	</desc>
	<defs/>
	<path id="Vector" d="M17.28 7.26L16.36 6.35C16.25 6.24 16.16 6.1 16.1 5.96C16.04 5.81 16.01 5.66 16.01 5.5L16.01 4.43C16.01 3.78 15.75 3.16 15.29 2.7C14.83 2.24 14.21 1.98 13.56 1.98L12.49 1.98C12.17 1.98 11.87 1.85 11.64 1.63L10.73 0.71C10.27 0.25 9.65 0 8.99 0C8.34 0 7.72 0.25 7.26 0.71L6.35 1.63C6.12 1.85 5.82 1.98 5.5 1.98L4.43 1.98C3.78 1.98 3.16 2.24 2.7 2.7C2.24 3.16 1.98 3.78 1.98 4.43L1.98 5.5C1.98 5.66 1.95 5.81 1.89 5.96C1.83 6.1 1.74 6.24 1.63 6.35L0.71 7.26C0.25 7.72 0 8.34 0 8.99C0 9.65 0.25 10.27 0.71 10.73L1.63 11.64C1.74 11.75 1.83 11.89 1.89 12.03C1.95 12.18 1.98 12.33 1.98 12.49L1.98 13.56C1.98 14.21 2.24 14.83 2.7 15.29C3.16 15.75 3.78 16.01 4.43 16.01L5.5 16.01C5.82 16.01 6.12 16.14 6.35 16.36L7.26 17.28C7.72 17.74 8.34 18 8.99 18C9.65 18 10.27 17.74 10.73 17.28L11.64 16.36C11.87 16.14 12.17 16.01 12.49 16.01L13.56 16.01C14.21 16.01 14.83 15.75 15.29 15.29C15.75 14.83 16.01 14.21 16.01 13.56L16.01 12.49C16.01 12.33 16.04 12.18 16.1 12.03C16.16 11.89 16.25 11.75 16.36 11.64L17.28 10.73C17.74 10.27 17.99 9.65 17.99 8.99C17.99 8.34 17.74 7.72 17.28 7.26ZM11.95 7.76L8.6 11.11C8.54 11.17 8.47 11.22 8.4 11.25C8.32 11.28 8.24 11.3 8.16 11.3C8.08 11.3 7.99 11.28 7.92 11.25C7.84 11.22 7.77 11.17 7.71 11.11L6.04 9.44C5.93 9.32 5.87 9.16 5.87 9C5.87 8.84 5.94 8.68 6.05 8.56C6.17 8.45 6.32 8.38 6.49 8.38C6.65 8.38 6.81 8.44 6.93 8.55L8.16 9.78L11.06 6.88C11.18 6.77 11.34 6.71 11.5 6.71C11.66 6.71 11.82 6.78 11.94 6.89C12.05 7.01 12.12 7.16 12.12 7.32C12.12 7.49 12.06 7.64 11.95 7.76L11.95 7.76Z" fill="#9DB2FF" fill-opacity="1.000000" fill-rule="nonzero"/>
</svg>
