<svg width="7.000000" height="9.664062" viewBox="0 0 7 9.66406" fill="none" xmlns="http://www.w3.org/2000/svg" xmlns:xlink="http://www.w3.org/1999/xlink">
	<desc>
			Created with Pixso.
	</desc>
	<defs/>
	<path d="M3.5 0C1.57 0 0 1.57 0 3.5C0 5.89 3.13 9.41 3.26 9.55C3.39 9.69 3.6 9.69 3.73 9.55C3.86 9.41 7 5.89 7 3.5C7 1.57 5.42 0 3.5 0ZM3.5 5.26C2.52 5.26 1.73 4.47 1.73 3.5C1.73 2.52 2.52 1.73 3.5 1.73C4.47 1.73 5.26 2.52 5.26 3.5C5.26 4.47 4.47 5.26 3.5 5.26Z" fill="#FECB65" fill-opacity="1.000000" fill-rule="nonzero"/>
</svg>
